<svg 
 xmlns="http://www.w3.org/2000/svg"
 xmlns:xlink="http://www.w3.org/1999/xlink"
 width="14px" height="16px">
<path fill-rule="evenodd"  fill="rgb(171, 171, 171)"
 d="M13.311,2.695 C13.603,2.977 13.750,3.328 13.750,3.750 L13.750,14.262 C13.750,14.684 13.603,15.035 13.311,15.316 C13.017,15.598 12.660,15.738 12.238,15.738 L1.762,15.738 C1.340,15.738 0.982,15.598 0.689,15.316 C0.396,15.035 0.250,14.684 0.250,14.262 L0.250,3.750 C0.250,3.328 0.396,2.977 0.689,2.695 C0.982,2.414 1.340,2.262 1.762,2.238 L2.500,2.238 L2.500,0.762 L4.012,0.762 L4.012,2.238 L9.988,2.238 L9.988,0.762 L11.500,0.762 L11.500,2.238 L12.238,2.238 C12.660,2.262 13.017,2.414 13.311,2.695 ZM12.238,6.738 L1.762,6.738 L1.762,14.262 L12.238,14.262 L12.238,6.738 ZM12.238,5.262 L12.238,3.750 L1.762,3.750 L1.762,5.262 L12.238,5.262 ZM3.555,10.711 L4.328,9.938 L5.910,11.520 L9.566,7.863 L10.375,8.637 L5.910,13.102 L3.555,10.711 Z"/>
</svg>