<svg 
 xmlns="http://www.w3.org/2000/svg"
 xmlns:xlink="http://www.w3.org/1999/xlink"
 width="16px" height="16px">
<path fill-rule="evenodd"  fill="rgb(61, 61, 61)"
 d="M15.986,12.524 C15.936,13.157 15.826,13.593 15.609,14.041 C15.177,14.932 14.383,15.582 13.424,15.829 C13.077,15.920 12.762,15.962 12.221,15.987 C12.027,15.997 10.007,16.000 7.986,16.000 C5.965,16.000 3.945,15.993 3.747,15.984 C3.279,15.962 2.915,15.915 2.585,15.831 C1.633,15.585 0.824,14.925 0.401,14.046 C0.179,13.587 0.075,13.167 0.019,12.499 C0.003,12.310 -0.000,11.334 -0.000,7.995 C-0.000,6.869 -0.002,6.032 -0.000,5.394 C0.003,3.482 0.019,3.407 0.073,3.032 C0.184,2.261 0.492,1.613 0.999,1.085 C1.278,0.796 1.561,0.590 1.919,0.413 C2.383,0.181 2.810,0.073 3.495,0.015 C3.685,-0.001 4.662,-0.003 8.003,-0.003 L10.607,-0.003 C12.520,-0.001 12.594,0.016 12.968,0.069 C13.739,0.182 14.387,0.489 14.916,0.994 C15.213,1.280 15.417,1.559 15.601,1.933 C15.825,2.390 15.935,2.822 15.986,3.465 C15.996,3.603 16.001,5.798 16.001,7.993 C16.001,10.188 15.997,12.386 15.986,12.524 ZM13.870,5.562 C13.841,4.933 13.741,4.504 13.596,4.128 C13.444,3.739 13.243,3.410 12.914,3.082 C12.585,2.752 12.257,2.550 11.868,2.400 C11.491,2.253 11.062,2.154 10.433,2.125 C9.803,2.096 9.602,2.089 7.998,2.089 C6.395,2.089 6.193,2.096 5.563,2.125 C4.934,2.154 4.505,2.253 4.130,2.400 C3.741,2.551 3.411,2.752 3.083,3.082 C2.754,3.410 2.553,3.739 2.401,4.128 C2.255,4.504 2.155,4.933 2.127,5.562 C2.098,6.193 2.091,6.394 2.091,7.999 C2.091,9.603 2.098,9.805 2.127,10.434 C2.156,11.063 2.255,11.493 2.401,11.869 C2.552,12.257 2.754,12.587 3.082,12.916 C3.411,13.244 3.740,13.447 4.129,13.598 C4.505,13.744 4.934,13.843 5.563,13.872 C6.193,13.901 6.394,13.908 7.998,13.908 C9.603,13.908 9.803,13.901 10.434,13.872 C11.063,13.843 11.492,13.744 11.868,13.598 C12.257,13.447 12.586,13.244 12.914,12.916 C13.243,12.587 13.444,12.257 13.596,11.870 C13.741,11.493 13.841,11.063 13.870,10.434 C13.899,9.805 13.906,9.603 13.906,7.999 C13.906,6.394 13.899,6.193 13.870,5.562 ZM12.604,11.481 C12.497,11.757 12.369,11.953 12.162,12.160 C11.955,12.367 11.759,12.496 11.483,12.602 C11.275,12.684 10.962,12.779 10.386,12.806 C9.763,12.834 9.576,12.840 7.999,12.840 C6.422,12.840 6.235,12.834 5.612,12.806 C5.036,12.779 4.723,12.683 4.515,12.602 C4.239,12.495 4.042,12.367 3.836,12.160 C3.629,11.953 3.501,11.757 3.394,11.481 C3.313,11.273 3.216,10.960 3.190,10.383 C3.162,9.761 3.156,9.574 3.156,7.996 C3.156,6.418 3.162,6.231 3.190,5.609 C3.217,5.032 3.313,4.720 3.394,4.511 C3.501,4.235 3.629,4.038 3.836,3.831 C4.042,3.625 4.239,3.498 4.515,3.389 C4.723,3.309 5.036,3.213 5.612,3.186 C6.157,3.161 6.368,3.154 7.469,3.153 L7.469,3.154 C7.626,3.154 7.802,3.154 7.999,3.154 C9.576,3.154 9.763,3.159 10.386,3.188 C10.962,3.214 11.275,3.311 11.483,3.391 C11.759,3.499 11.955,3.627 12.162,3.833 C12.369,4.040 12.497,4.238 12.604,4.513 C12.685,4.721 12.781,5.034 12.807,5.610 C12.836,6.233 12.842,6.420 12.842,7.997 C12.842,9.574 12.836,9.761 12.807,10.385 C12.781,10.960 12.685,11.274 12.604,11.481 ZM7.999,4.964 C6.324,4.964 4.965,6.323 4.965,7.999 C4.965,9.674 6.324,11.033 7.999,11.033 C9.674,11.033 11.032,9.674 11.032,7.999 C11.032,6.323 9.674,4.964 7.999,4.964 ZM11.152,4.135 L11.152,4.136 C10.761,4.136 10.443,4.453 10.443,4.844 C10.443,5.236 10.761,5.553 11.152,5.553 C11.544,5.553 11.861,5.236 11.861,4.844 C11.861,4.453 11.544,4.135 11.152,4.135 ZM7.999,9.969 C6.912,9.969 6.030,9.087 6.030,7.999 C6.030,6.911 6.912,6.029 7.999,6.029 C9.087,6.029 9.968,6.911 9.968,7.999 C9.968,9.087 9.087,9.969 7.999,9.969 Z"/>
</svg>