<svg 
 xmlns="http://www.w3.org/2000/svg"
 xmlns:xlink="http://www.w3.org/1999/xlink"
 width="14px" height="16px">
<path fill-rule="evenodd"  fill="rgb(26, 26, 26)"
 d="M11.000,10.000 C10.293,10.000 9.644,10.244 9.132,10.653 L5.929,8.651 C5.968,8.474 6.000,8.182 6.000,8.000 C6.000,7.818 5.968,7.526 5.929,7.349 L9.132,5.347 C9.644,5.756 10.293,6.000 11.000,6.000 C12.657,6.000 14.000,4.657 14.000,3.000 C14.000,1.343 12.657,-0.000 11.000,-0.000 C9.343,-0.000 8.000,1.343 8.000,3.000 C8.000,3.224 8.025,3.442 8.071,3.651 L4.868,5.653 C4.356,5.244 3.707,5.000 3.000,5.000 C1.343,5.000 -0.000,6.343 -0.000,8.000 C-0.000,9.657 1.343,11.000 3.000,11.000 C3.707,11.000 4.356,10.756 4.868,10.347 L8.071,12.349 C8.032,12.526 8.000,12.817 8.000,12.999 L8.000,13.000 C8.000,14.657 9.343,16.000 11.000,16.000 C12.657,16.000 14.000,14.657 14.000,13.000 C14.000,11.343 12.657,10.000 11.000,10.000 Z"/>
</svg>