<svg 
 xmlns="http://www.w3.org/2000/svg"
 xmlns:xlink="http://www.w3.org/1999/xlink"
 width="80px" height="75px">
<path fill-rule="evenodd"  fill="rgb(211, 211, 211)"
 d="M61.098,55.721 L74.579,61.560 C77.902,63.220 80.000,66.615 80.000,70.331 L80.000,74.050 L60.689,74.050 L0.000,74.050 L0.000,69.582 C0.000,65.534 2.211,61.809 5.766,59.871 L18.070,53.158 C19.686,52.279 20.690,50.586 20.690,48.747 L20.690,43.706 C20.690,43.706 17.079,39.388 15.701,33.385 C14.557,32.645 13.793,31.367 13.793,29.913 L13.793,24.396 C13.793,23.182 14.333,22.096 15.173,21.337 L15.173,13.361 C15.173,13.361 13.534,0.947 30.345,0.947 C41.088,0.947 44.292,6.015 45.209,9.674 C45.209,9.674 45.208,9.673 45.208,9.672 C47.233,8.690 49.692,8.058 52.709,8.033 C67.830,8.157 68.160,23.483 68.160,23.483 C68.351,33.442 74.298,43.081 77.173,47.176 C78.157,48.575 77.615,50.550 76.042,51.226 C73.357,52.379 69.876,52.045 69.876,52.045 L60.382,52.045 C59.524,52.045 58.954,52.949 59.336,53.717 C59.758,54.568 60.360,55.353 61.098,55.721 ZM45.524,13.297 C45.525,13.290 45.525,13.289 45.526,13.281 C45.525,13.286 45.525,13.292 45.524,13.297 ZM54.575,59.957 L43.434,54.388 C43.663,54.217 43.909,54.030 44.165,53.826 C44.909,53.241 44.491,52.044 43.543,52.044 L39.749,52.044 C39.584,51.841 39.439,51.623 39.308,51.398 C39.791,52.229 40.506,52.924 41.399,53.371 L54.574,59.958 C58.321,61.833 60.689,65.663 60.689,69.853 C60.689,65.663 58.321,61.833 54.575,59.957 ZM38.621,48.875 C38.621,49.146 38.648,49.412 38.690,49.674 C38.648,49.412 38.621,49.146 38.621,48.875 ZM38.740,49.907 C38.779,50.092 38.826,50.275 38.885,50.453 C38.826,50.275 38.779,50.092 38.740,49.907 ZM38.971,50.690 C39.041,50.871 39.123,51.047 39.214,51.219 C39.123,51.047 39.042,50.871 38.971,50.690 Z"/>
</svg>