<svg 
 xmlns="http://www.w3.org/2000/svg"
 xmlns:xlink="http://www.w3.org/1999/xlink"
 width="18px" height="13px">
<path fill-rule="evenodd"  fill="rgb(26, 26, 26)"
 d="M7.320,4.000 L11.656,6.500 L7.320,9.000 L7.320,4.000 ZM15.523,1.031 C14.664,0.797 12.489,0.680 9.000,0.680 L7.672,0.719 C6.760,0.719 5.764,0.745 4.684,0.797 C3.603,0.849 2.867,0.927 2.477,1.031 C1.721,1.240 1.239,1.722 1.031,2.477 C0.797,3.336 0.680,4.677 0.680,6.500 L0.719,7.203 C0.719,7.698 0.744,8.277 0.797,8.941 C0.849,9.605 0.927,10.133 1.031,10.523 C1.239,11.279 1.721,11.761 2.477,11.969 C3.336,12.203 5.510,12.320 9.000,12.320 L10.328,12.281 C11.239,12.281 12.235,12.256 13.316,12.203 C14.397,12.151 15.133,12.073 15.523,11.969 C16.278,11.761 16.760,11.279 16.969,10.523 C17.203,9.664 17.320,8.323 17.320,6.500 L17.281,5.797 C17.281,5.302 17.255,4.723 17.203,4.059 C17.151,3.395 17.073,2.867 16.969,2.477 C16.760,1.722 16.278,1.240 15.523,1.031 L15.523,1.031 Z"/>
</svg>